<svg width="15" height="16" viewBox="0 0 15 16" fill="none" xmlns="http://www.w3.org/2000/svg">
<path d="M7.79434 4.46848C7.79285 4.47074 7.79187 4.47329 7.79148 4.47597C7.79109 4.47865 7.79129 4.48138 7.79206 4.48397C7.79284 4.48656 7.79418 4.48895 7.79598 4.49097C7.79778 4.49298 7.8 4.49458 7.80249 4.49564C8.53845 4.81654 9.11667 5.07966 9.53716 5.28502C9.73854 5.38353 9.91619 5.55648 10.0701 5.80385C10.3609 6.27106 10.537 6.54976 10.5982 6.63994C10.602 6.64559 10.6039 6.6523 10.6036 6.6591C10.6033 6.6659 10.6009 6.67243 10.5966 6.67775C10.5924 6.68308 10.5866 6.68691 10.58 6.68871C10.5735 6.69051 10.5665 6.69017 10.5601 6.68775C10.3236 6.59684 10.138 6.53147 10.0033 6.49163C9.21228 6.25802 8.3387 6.34603 7.52271 6.50467C7.46742 6.51551 7.41138 6.52097 7.35538 6.52097H5.01224C5.00921 6.52094 5.00624 6.52003 5.0037 6.51836C5.00117 6.51668 4.99919 6.51432 4.99802 6.51157C4.99685 6.50882 4.99654 6.50581 4.99714 6.50294C4.99774 6.50006 4.99921 6.49745 5.00137 6.49543L6.271 5.24482C6.2769 5.23907 6.28136 5.23199 6.284 5.22415C6.28664 5.21632 6.2874 5.20795 6.28621 5.19973C6.27716 5.13236 6.26883 5.06445 6.26122 4.996C6.03305 2.92577 6.70454 1.26281 8.27568 0.00711951C8.27986 0.00378347 8.2848 0.00152711 8.29006 0.000549386C8.29531 -0.000428339 8.30073 -9.7399e-05 8.30583 0.00151304C8.31093 0.00312347 8.31556 0.00596393 8.3193 0.00978394C8.32304 0.0136039 8.32579 0.0182862 8.32729 0.0234177C8.50368 0.606169 8.59096 1.21844 8.58915 1.86022C8.58589 2.81421 8.32096 3.68363 7.79434 4.46848Z" fill="black"/>
<path d="M6.26231 7.95793C6.26271 7.95547 6.2622 7.95294 6.26088 7.95083C6.25956 7.94871 6.25752 7.94715 6.25514 7.94642C6.25275 7.94569 6.25019 7.94585 6.24791 7.94687C6.24563 7.94788 6.2438 7.94969 6.24276 7.95195C5.85431 8.73372 5.62071 9.70835 6.26557 10.4054C6.4856 10.6433 6.79689 10.7829 7.15437 10.9883C7.16528 10.9946 7.17372 11.0044 7.17827 11.016C7.18282 11.0277 7.18321 11.0406 7.17936 11.0524L5.60495 15.9598C5.60128 15.971 5.59416 15.9808 5.58459 15.9877C5.57503 15.9947 5.56352 15.9984 5.55171 15.9984H0.0320531C0.0278439 15.9984 0.0236758 15.9975 0.019787 15.9959C0.0158981 15.9943 0.0123646 15.992 0.00938818 15.989C0.00641177 15.986 0.00405079 15.9825 0.00243997 15.9786C0.000829147 15.9747 0 15.9705 0 15.9663V0.737824C0 0.73134 0.00257578 0.725122 0.00716054 0.720537C0.0117453 0.715953 0.0179635 0.713377 0.0244473 0.713377H6.79744C6.79907 0.713417 6.80066 0.713887 6.80204 0.71474C6.80343 0.715592 6.80457 0.716797 6.80534 0.718231C6.80611 0.719666 6.80649 0.721279 6.80644 0.722907C6.80639 0.724535 6.80591 0.72612 6.80504 0.727502L6.43236 1.30609C6.42604 1.31607 6.41729 1.3243 6.40694 1.33C6.39659 1.3357 6.38496 1.33868 6.37314 1.33868H0.612269C0.608667 1.33868 0.605212 1.34017 0.602665 1.34282C0.600118 1.34547 0.598687 1.34906 0.598687 1.35281V8.38874C0.598658 8.39072 0.599167 8.39266 0.600161 8.39437C0.601155 8.39608 0.602595 8.39748 0.604327 8.39843C0.606059 8.39938 0.608017 8.39984 0.609991 8.39976C0.611965 8.39968 0.613879 8.39906 0.615529 8.39798L2.8185 6.87192C2.82061 6.87059 2.82216 6.86859 2.8229 6.86624C2.82365 6.8639 2.82353 6.86135 2.82259 6.85902C2.82164 6.85669 2.81992 6.8547 2.8177 6.8534C2.81547 6.85209 2.81289 6.85154 2.81035 6.85182L1.67328 7.01861C1.66995 7.01902 1.66654 7.01834 1.6636 7.01667C1.66066 7.01499 1.65835 7.01242 1.65704 7.00937C1.65573 7.00631 1.6555 7.00294 1.65637 6.99979C1.65725 6.99664 1.65918 6.9939 1.66187 6.99199L5.63212 3.99692C5.63369 3.99573 5.63556 3.995 5.63753 3.9948C5.63949 3.99459 5.64147 3.99493 5.64326 3.99577C5.64505 3.9966 5.64657 3.99791 5.64767 3.99955C5.64877 4.00119 5.6494 4.0031 5.6495 4.00507L5.69459 4.94004C5.69544 4.9568 5.69273 4.97355 5.68664 4.98918C5.68055 5.00482 5.67123 5.01899 5.65928 5.03077L0.654101 9.96098C0.636553 9.97836 0.622621 9.99898 0.61311 10.0216C0.603599 10.0443 0.598697 10.0685 0.598687 10.093V10.8443C0.598672 10.8464 0.59925 10.8483 0.600349 10.85C0.601449 10.8517 0.603021 10.8531 0.604872 10.8539C0.606723 10.8547 0.608771 10.8549 0.610762 10.8546C0.612752 10.8542 0.614599 10.8533 0.616072 10.8519C1.75188 9.72809 2.83716 8.64861 3.87191 7.61349C3.96264 7.52222 4.02566 7.49778 4.16202 7.49778C5.34708 7.49959 6.42403 7.49995 7.39287 7.49886C7.41796 7.49867 7.4423 7.50748 7.46152 7.52371C7.48075 7.53995 7.49358 7.56253 7.49772 7.58741C7.60148 8.20675 7.69492 8.83205 8.35229 9.0787C8.84069 9.26178 9.47795 9.22321 9.91528 8.96516C10.3792 8.69189 10.5743 8.18284 10.7079 7.68303C10.7092 7.67856 10.7117 7.67451 10.7151 7.67134C10.7185 7.66818 10.7227 7.66602 10.7272 7.66512C10.7318 7.66421 10.7364 7.6646 10.7407 7.66623C10.745 7.66786 10.7487 7.67067 10.7514 7.67434C11.2776 8.3614 11.6641 8.8623 11.9107 9.17703C12.2709 9.63664 12.5333 10.1033 12.8098 10.5705C12.9913 10.878 12.8886 11.0204 12.7457 11.3561C12.5295 11.8632 12.377 12.2061 12.2883 12.3851C12.2093 12.5437 12.0679 12.6265 11.864 12.6333C11.4866 12.646 11.0373 12.6475 10.5161 12.6377C10.3418 12.6344 10.2434 12.5899 10.1587 12.4334C10.0167 12.1734 9.90406 11.9696 9.82075 11.8222C9.7485 11.6929 9.68874 11.6277 9.54803 11.5539C8.38941 10.9476 7.65726 10.5694 7.35158 10.4195C6.98432 10.2399 6.74709 10.0912 6.63989 9.97347C6.38998 9.69894 6.25416 9.37388 6.23243 8.9983C6.21179 8.63177 6.22175 8.28498 6.26231 7.95793Z" fill="black"/>
<path d="M9.12373 1.32456L9.03681 0.731849C9.0365 0.729462 9.0367 0.727036 9.03741 0.724735C9.03811 0.722433 9.03931 0.72031 9.0409 0.718508C9.0425 0.716706 9.04446 0.715268 9.04666 0.714289C9.04886 0.71331 9.05124 0.712814 9.05365 0.712834H10.4298C10.4331 0.712817 10.4364 0.713795 10.4392 0.715644C10.4419 0.717494 10.4441 0.72013 10.4454 0.723219C10.4467 0.726307 10.447 0.729706 10.4464 0.732985C10.4457 0.736263 10.4441 0.739272 10.4417 0.741627L9.84031 1.33434C9.83874 1.3359 9.83687 1.33714 9.83482 1.33797C9.83277 1.33881 9.83057 1.33924 9.82836 1.33923H9.14057C9.13646 1.33926 9.13247 1.33779 9.12937 1.33509C9.12627 1.33238 9.12426 1.32864 9.12373 1.32456Z" fill="black"/>
<path d="M6.46386 15.3785H14.1914C14.1959 15.3785 14.2001 15.3767 14.2033 15.3736C14.2065 15.3704 14.2082 15.3661 14.2082 15.3617V1.35552C14.2082 1.35331 14.2078 1.35112 14.2069 1.34908C14.2061 1.34704 14.2049 1.34518 14.2033 1.34362C14.2017 1.34205 14.1999 1.34081 14.1978 1.33996C14.1958 1.33912 14.1936 1.33868 14.1914 1.33868H11.8499C11.8454 1.33868 11.8411 1.33691 11.838 1.33375C11.8348 1.33059 11.833 1.32631 11.833 1.32184V0.73076C11.833 0.726294 11.8348 0.72201 11.838 0.718851C11.8411 0.715693 11.8454 0.713919 11.8499 0.713919H14.7912C14.7956 0.713919 14.7999 0.715693 14.8031 0.718851C14.8062 0.72201 14.808 0.726294 14.808 0.73076V15.9832C14.808 15.9876 14.8062 15.9919 14.8031 15.9951C14.7999 15.9982 14.7956 16 14.7912 16H6.27535C6.2727 16 6.27009 15.9994 6.26772 15.9983C6.26534 15.9971 6.26328 15.9954 6.26169 15.9933C6.2601 15.9911 6.25904 15.9887 6.25858 15.9861C6.25812 15.9835 6.25828 15.9808 6.25905 15.9783L6.44757 15.3904C6.44862 15.387 6.45078 15.3839 6.45372 15.3818C6.45666 15.3796 6.46022 15.3785 6.46386 15.3785Z" fill="black"/>
<path d="M11.2604 0.71935C11.2619 0.718048 11.2638 0.717182 11.2657 0.716846C11.2677 0.716511 11.2697 0.716718 11.2715 0.717446C11.2734 0.718174 11.275 0.719395 11.2762 0.720976C11.2774 0.722557 11.2781 0.724437 11.2784 0.726413C11.4071 2.32309 10.9823 3.73289 9.66049 4.70915C9.65505 4.71308 9.64867 4.71551 9.64199 4.71618C9.63531 4.71684 9.62857 4.71573 9.62246 4.71295L8.64294 4.26801C8.63522 4.26444 8.6291 4.25812 8.62579 4.25029C8.62248 4.24245 8.6222 4.23366 8.62501 4.22564C8.75684 3.86128 8.88306 3.52771 9.00367 3.22493C9.14709 2.86492 9.3568 2.54946 9.63278 2.27854C10.1503 1.77004 10.6929 1.25031 11.2604 0.71935Z" fill="black"/>
<path d="M11.2104 7.91881C10.9953 7.63739 10.8847 7.49216 10.8785 7.4831C10.7405 7.28209 10.5678 7.42606 10.5074 7.59339C10.4959 7.62454 10.4433 7.77629 10.3499 8.04865C10.1623 8.59627 9.77856 8.89887 9.1987 8.95646C8.90678 8.98544 8.63714 8.95085 8.38977 8.8527C7.88072 8.65114 7.81118 8.08288 7.73512 7.62055C7.69221 7.35869 7.58627 7.26905 7.30811 7.27449C7.15672 7.27775 6.13772 7.27901 4.25111 7.27829C4.24761 7.27837 4.24417 7.2774 4.24124 7.27549C4.2383 7.27359 4.23601 7.27085 4.23466 7.26762C4.23331 7.26439 4.23297 7.26083 4.23367 7.2574C4.23438 7.25398 4.2361 7.25084 4.23862 7.24841L4.71235 6.78174C4.73949 6.75492 4.77599 6.73989 4.81394 6.73991H7.41079C7.47291 6.73991 7.53483 6.73335 7.5955 6.72035C8.46094 6.53292 9.40406 6.49163 10.2385 6.80347C10.477 6.89257 10.7269 6.95396 10.9002 6.88768C11.0534 6.829 11.1621 6.78826 11.2262 6.76544C11.6565 6.61187 12.1003 6.60427 12.5578 6.74262C12.5832 6.75031 12.6055 6.76598 12.6213 6.7873C12.6372 6.80863 12.6457 6.83449 12.6458 6.86106V7.1403C12.6458 7.1555 12.641 7.17047 12.6322 7.18322C12.5507 7.3002 12.5065 7.37735 12.4996 7.41465C12.4105 7.88567 12.4236 8.53651 11.876 8.73915C11.8684 8.74194 11.8602 8.74223 11.8526 8.73997C11.8449 8.73772 11.8383 8.73304 11.8336 8.72666L11.7157 8.57019C11.714 8.56784 11.7128 8.5651 11.7124 8.56222C11.712 8.55933 11.7122 8.5564 11.7132 8.55369C11.7142 8.55098 11.7158 8.54859 11.718 8.54672C11.7201 8.54486 11.7227 8.54359 11.7255 8.54303C11.9482 8.49377 12.0931 8.34329 12.1601 8.09157C12.2398 7.79277 12.2671 7.50556 12.2421 7.22994C12.2244 7.03581 12.1212 6.92933 11.9325 6.91049C11.4815 6.86486 11.086 6.98492 11.1529 7.54558C11.1655 7.65315 11.1896 7.7752 11.2251 7.91175C11.2259 7.91367 11.226 7.91584 11.2252 7.9178C11.2245 7.91976 11.223 7.92137 11.2211 7.92227C11.2193 7.92318 11.2171 7.92333 11.2151 7.92268C11.2131 7.92204 11.2114 7.92065 11.2104 7.91881ZM9.96635 8.2187C10.1407 7.91066 10.3944 7.11965 9.87508 6.95885C9.42887 6.82049 8.98556 6.80401 8.54515 6.90941C8.23439 6.98329 8.10183 7.13867 8.07739 7.44345C8.03881 7.9199 8.13986 8.53542 8.67933 8.67124C9.1585 8.79185 9.70992 8.67233 9.96635 8.2187Z" fill="black"/>
</svg>
