<svg width="273" height="295" viewBox="0 0 273 295" fill="none" xmlns="http://www.w3.org/2000/svg">
<path d="M143.47 82.2511C143.443 82.2926 143.425 82.3397 143.417 82.3889C143.41 82.4382 143.414 82.4884 143.428 82.5361C143.442 82.5838 143.467 82.6278 143.5 82.6649C143.533 82.7021 143.574 82.7315 143.62 82.7511C157.167 88.6577 167.81 93.5011 175.55 97.2811C179.257 99.0944 182.527 102.278 185.36 106.831C190.713 115.431 193.953 120.561 195.08 122.221C195.15 122.325 195.185 122.449 195.18 122.574C195.174 122.699 195.13 122.819 195.052 122.917C194.974 123.015 194.867 123.086 194.746 123.119C194.625 123.152 194.497 123.146 194.38 123.101C190.027 121.428 186.61 120.224 184.13 119.491C169.57 115.191 153.49 116.811 138.47 119.731C137.452 119.931 136.421 120.031 135.39 120.031H92.26C92.2043 120.031 92.1495 120.014 92.1029 119.983C92.0562 119.952 92.0197 119.909 91.9982 119.858C91.9767 119.807 91.971 119.752 91.9821 119.699C91.9931 119.646 92.0202 119.598 92.06 119.561L115.43 96.5411C115.539 96.4353 115.621 96.3049 115.669 96.1607C115.718 96.0164 115.732 95.8624 115.71 95.7111C115.543 94.4711 115.39 93.2211 115.25 91.9611C111.05 53.8544 123.41 23.2444 152.33 0.131048C152.407 0.0696422 152.498 0.0281095 152.595 0.0101125C152.691 -0.00788442 152.791 -0.00179282 152.885 0.0278504C152.979 0.0574936 153.064 0.109778 153.133 0.180092C153.202 0.250407 153.252 0.336592 153.28 0.431048C156.527 11.1577 158.133 22.4277 158.1 34.241C158.04 51.801 153.163 67.8044 143.47 82.2511Z" fill="black"/>
<path d="M115.27 146.481C115.277 146.436 115.268 146.389 115.244 146.35C115.219 146.311 115.182 146.283 115.138 146.269C115.094 146.256 115.047 146.259 115.005 146.277C114.963 146.296 114.929 146.329 114.91 146.371C107.76 160.761 103.46 178.701 115.33 191.531C119.38 195.911 125.11 198.481 131.69 202.261C131.891 202.376 132.046 202.557 132.13 202.772C132.214 202.986 132.221 203.223 132.15 203.441L103.17 293.771C103.102 293.978 102.971 294.158 102.795 294.285C102.619 294.413 102.407 294.481 102.19 294.481H0.59C0.51252 294.481 0.4358 294.466 0.364218 294.436C0.292636 294.407 0.227594 294.363 0.172808 294.308C0.118021 294.253 0.0745626 294.188 0.0449123 294.117C0.0152621 294.045 0 293.969 0 293.891V13.5811C0 13.4617 0.0474121 13.3473 0.131804 13.2629C0.216195 13.1785 0.330653 13.1311 0.450001 13.1311H125.12C125.15 13.1318 125.179 13.1405 125.205 13.1562C125.23 13.1719 125.251 13.194 125.265 13.2204C125.28 13.2468 125.287 13.2765 125.286 13.3065C125.285 13.3365 125.276 13.3656 125.26 13.3911L118.4 24.0411C118.284 24.2249 118.123 24.3763 117.932 24.4812C117.742 24.5861 117.528 24.6411 117.31 24.6411H11.27C11.2037 24.6411 11.1401 24.6685 11.0932 24.7172C11.0463 24.766 11.02 24.8321 11.02 24.9011V154.411C11.0195 154.447 11.0288 154.483 11.0471 154.515C11.0654 154.546 11.0919 154.572 11.1238 154.589C11.1557 154.607 11.1917 154.615 11.2281 154.614C11.2644 154.612 11.2996 154.601 11.33 154.581L51.88 126.491C51.9188 126.466 51.9473 126.43 51.961 126.386C51.9747 126.343 51.9726 126.296 51.9552 126.254C51.9378 126.211 51.9061 126.174 51.8652 126.15C51.8243 126.126 51.7766 126.116 51.73 126.121L30.8 129.191C30.7387 129.199 30.676 129.186 30.6218 129.155C30.5677 129.125 30.5252 129.077 30.5011 129.021C30.477 128.965 30.4726 128.903 30.4887 128.845C30.5048 128.787 30.5405 128.736 30.59 128.701L103.67 73.5711C103.699 73.5492 103.733 73.5357 103.77 73.532C103.806 73.5282 103.842 73.5344 103.875 73.5498C103.908 73.5652 103.936 73.5893 103.956 73.6195C103.977 73.6497 103.988 73.6848 103.99 73.7211L104.82 90.9311C104.836 91.2395 104.786 91.5478 104.674 91.8356C104.562 92.1234 104.39 92.3843 104.17 92.6011L12.04 183.351C11.717 183.671 11.4605 184.051 11.2855 184.468C11.1104 184.885 11.0202 185.331 11.02 185.781V199.611C11.0197 199.648 11.0304 199.685 11.0506 199.716C11.0708 199.747 11.0998 199.772 11.1338 199.787C11.1679 199.801 11.2056 199.806 11.2422 199.8C11.2789 199.793 11.3129 199.777 11.34 199.751C32.2467 179.064 52.2233 159.194 71.27 140.141C72.94 138.461 74.1 138.011 76.61 138.011C98.4233 138.044 118.247 138.051 136.08 138.031C136.542 138.028 136.99 138.19 137.344 138.489C137.698 138.787 137.934 139.203 138.01 139.661C139.92 151.061 141.64 162.571 153.74 167.111C162.73 170.481 174.46 169.771 182.51 165.021C191.05 159.991 194.64 150.621 197.1 141.421C197.124 141.339 197.169 141.264 197.232 141.206C197.295 141.148 197.373 141.108 197.456 141.091C197.539 141.075 197.625 141.082 197.703 141.112C197.782 141.142 197.85 141.193 197.9 141.261C207.587 153.908 214.7 163.128 219.24 168.921C225.87 177.381 230.7 185.971 235.79 194.571C239.13 200.231 237.24 202.851 234.61 209.031C230.63 218.364 227.823 224.678 226.19 227.971C224.737 230.891 222.133 232.414 218.38 232.541C211.433 232.774 203.163 232.801 193.57 232.621C190.36 232.561 188.55 231.741 186.99 228.861C184.377 224.074 182.303 220.324 180.77 217.611C179.44 215.231 178.34 214.031 175.75 212.671C154.423 201.511 140.947 194.551 135.32 191.791C128.56 188.484 124.193 185.748 122.22 183.581C117.62 178.528 115.12 172.544 114.72 165.631C114.34 158.884 114.523 152.501 115.27 146.481Z" fill="black"/>
<path d="M167.94 24.3811L166.34 13.4711C166.334 13.4271 166.338 13.3825 166.351 13.3401C166.364 13.2978 166.386 13.2587 166.415 13.2255C166.445 13.1924 166.481 13.1659 166.521 13.1479C166.562 13.1298 166.606 13.1207 166.65 13.1211H191.98C192.042 13.1208 192.102 13.1388 192.153 13.1728C192.204 13.2068 192.244 13.2554 192.268 13.3122C192.292 13.3691 192.298 13.4316 192.286 13.492C192.273 13.5523 192.244 13.6077 192.2 13.6511L181.13 24.5611C181.101 24.5898 181.067 24.6126 181.029 24.628C180.991 24.6434 180.951 24.6513 180.91 24.6511H168.25C168.174 24.6517 168.101 24.6246 168.044 24.5749C167.987 24.5251 167.95 24.4562 167.94 24.3811Z" fill="black"/>
<path d="M118.98 283.071H261.22C261.302 283.071 261.381 283.038 261.439 282.98C261.497 282.922 261.53 282.843 261.53 282.761V24.9511C261.53 24.9103 261.522 24.87 261.506 24.8324C261.491 24.7948 261.468 24.7606 261.439 24.7318C261.41 24.7031 261.376 24.6802 261.339 24.6646C261.301 24.6491 261.261 24.6411 261.22 24.6411H218.12C218.038 24.6411 217.959 24.6084 217.901 24.5503C217.843 24.4921 217.81 24.4133 217.81 24.3311V13.4511C217.81 13.3688 217.843 13.29 217.901 13.2318C217.959 13.1737 218.038 13.1411 218.12 13.1411H272.26C272.342 13.1411 272.421 13.1737 272.479 13.2318C272.537 13.29 272.57 13.3688 272.57 13.4511V294.201C272.57 294.283 272.537 294.362 272.479 294.42C272.421 294.478 272.342 294.511 272.26 294.511H115.51C115.461 294.512 115.413 294.501 115.37 294.479C115.326 294.458 115.288 294.426 115.259 294.387C115.229 294.348 115.21 294.303 115.201 294.255C115.193 294.207 115.196 294.158 115.21 294.111L118.68 283.291C118.699 283.227 118.739 283.171 118.793 283.131C118.847 283.091 118.913 283.07 118.98 283.071Z" fill="black"/>
<path d="M207.27 13.241C207.298 13.2171 207.331 13.2011 207.367 13.195C207.403 13.1888 207.44 13.1926 207.474 13.206C207.508 13.2194 207.538 13.2419 207.56 13.271C207.582 13.3001 207.596 13.3347 207.6 13.371C209.97 42.761 202.15 68.711 177.82 86.681C177.72 86.7535 177.602 86.7981 177.479 86.8104C177.356 86.8227 177.232 86.8022 177.12 86.751L159.09 78.561C158.948 78.4953 158.835 78.379 158.774 78.2348C158.713 78.0906 158.708 77.9288 158.76 77.781C161.187 71.0744 163.51 64.9344 165.73 59.361C168.37 52.7344 172.23 46.9277 177.31 41.941C186.837 32.581 196.823 23.0144 207.27 13.241Z" fill="black"/>
<path d="M206.35 145.761C202.39 140.581 200.353 137.908 200.24 137.741C197.7 134.041 194.52 136.691 193.41 139.771C193.197 140.344 192.23 143.138 190.51 148.151C187.057 158.231 179.993 163.801 169.32 164.861C163.947 165.394 158.983 164.758 154.43 162.951C145.06 159.241 143.78 148.781 142.38 140.271C141.59 135.451 139.64 133.801 134.52 133.901C131.733 133.961 112.977 133.984 78.25 133.971C78.1856 133.973 78.1223 133.955 78.0682 133.92C78.0142 133.885 77.972 133.834 77.9472 133.775C77.9223 133.715 77.916 133.65 77.929 133.587C77.942 133.523 77.9737 133.466 78.02 133.421L86.74 124.831C87.2395 124.337 87.9115 124.061 88.61 124.061H136.41C137.554 124.061 138.693 123.94 139.81 123.701C155.74 120.251 173.1 119.491 188.46 125.231C192.85 126.871 197.45 128.001 200.64 126.781C203.46 125.701 205.46 124.951 206.64 124.531C214.56 121.704 222.73 121.564 231.15 124.111C231.618 124.253 232.028 124.541 232.32 124.933C232.612 125.326 232.769 125.802 232.77 126.291V131.431C232.77 131.711 232.683 131.986 232.52 132.221C231.02 134.374 230.207 135.794 230.08 136.481C228.44 145.151 228.68 157.131 218.6 160.861C218.461 160.912 218.31 160.918 218.17 160.876C218.029 160.835 217.906 160.749 217.82 160.631L215.65 157.751C215.618 157.708 215.597 157.657 215.589 157.604C215.581 157.551 215.586 157.497 215.604 157.447C215.622 157.397 215.652 157.353 215.692 157.319C215.731 157.285 215.779 157.261 215.83 157.251C219.93 156.344 222.597 153.574 223.83 148.941C225.297 143.441 225.8 138.154 225.34 133.081C225.013 129.508 223.113 127.548 219.64 127.201C211.34 126.361 204.06 128.571 205.29 138.891C205.523 140.871 205.967 143.118 206.62 145.631C206.635 145.667 206.636 145.706 206.622 145.743C206.609 145.779 206.582 145.808 206.547 145.825C206.512 145.842 206.472 145.844 206.436 145.832C206.399 145.821 206.368 145.795 206.35 145.761ZM183.45 151.281C186.66 145.611 191.33 131.051 181.77 128.091C173.557 125.544 165.397 125.241 157.29 127.181C151.57 128.541 149.13 131.401 148.68 137.011C147.97 145.781 149.83 157.111 159.76 159.611C168.58 161.831 178.73 159.631 183.45 151.281Z" fill="black"/>
</svg>
